{
    "asset" : {
        "generator" : "Khronos glTF Blender I/O v1.4.40",
        "version" : "2.0"
    },
    "scene" : 0,
    "scenes" : [
        {
            "name" : "Scene",
            "nodes" : [
                0,
                1
            ]
        }
    ],
    "nodes" : [
        {
            "mesh" : 0,
            "name" : "btn Current Project",
            "rotation" : [
                -0.6120637059211731,
                0.3540876507759094,
                -0.3540876507759094,
                -0.6120636463165283
            ],
            "scale" : [
                0.6000000238418579,
                0.6000000238418579,
                0.6000000238418579
            ],
            "translation" : [
                5.95060396194458,
                4.4738545417785645,
                -3.227809429168701
            ]
        },
        {
            "mesh" : 1,
            "name" : "Plane.025",
            "rotation" : [
                -0.23587781190872192,
                0.1290263682603836,
                -0.6666045784950256,
                0.6952353119850159
            ],
            "scale" : [
                0.5,
                1,
                1.399999976158142
            ],
            "translation" : [
                6.4053754806518555,
                4.426993370056152,
                -2.5140316486358643
            ]
        }
    ],
    "materials" : [
        {
            "doubleSided" : true,
            "emissiveFactor" : [
                0.03873325511813164,
                0.029503636062145233,
                0.06494678556919098
            ],
            "name" : "Darker",
            "pbrMetallicRoughness" : {}
        },
        {
            "doubleSided" : true,
            "emissiveFactor" : [
                0.26515063643455505,
                0.6560157537460327,
                1
            ],
            "name" : "Color 2",
            "pbrMetallicRoughness" : {}
        }
    ],
    "meshes" : [
        {
            "name" : "Text.005",
            "primitives" : [
                {
                    "attributes" : {
                        "POSITION" : 0,
                        "NORMAL" : 1,
                        "TANGENT" : 2,
                        "TEXCOORD_0" : 3
                    },
                    "indices" : 4,
                    "material" : 0
                }
            ]
        },
        {
            "name" : "Plane.027",
            "primitives" : [
                {
                    "attributes" : {
                        "POSITION" : 5,
                        "NORMAL" : 6,
                        "TANGENT" : 7,
                        "TEXCOORD_0" : 8
                    },
                    "indices" : 9,
                    "material" : 1
                }
            ]
        }
    ],
    "accessors" : [
        {
            "bufferView" : 0,
            "componentType" : 5126,
            "count" : 18076,
            "max" : [
                2.8231234550476074,
                0,
                0.6248971819877625
            ],
            "min" : [
                -0.00014972660574130714,
                0,
                -0.503935694694519
            ],
            "type" : "VEC3"
        },
        {
            "bufferView" : 1,
            "componentType" : 5126,
            "count" : 18076,
            "type" : "VEC3"
        },
        {
            "bufferView" : 2,
            "componentType" : 5126,
            "count" : 18076,
            "type" : "VEC4"
        },
        {
            "bufferView" : 3,
            "componentType" : 5126,
            "count" : 18076,
            "type" : "VEC2"
        },
        {
            "bufferView" : 4,
            "componentType" : 5123,
            "count" : 40668,
            "type" : "SCALAR"
        },
        {
            "bufferView" : 5,
            "componentType" : 5126,
            "count" : 4,
            "max" : [
                1,
                0,
                1
            ],
            "min" : [
                -1,
                0,
                -1
            ],
            "type" : "VEC3"
        },
        {
            "bufferView" : 6,
            "componentType" : 5126,
            "count" : 4,
            "type" : "VEC3"
        },
        {
            "bufferView" : 7,
            "componentType" : 5126,
            "count" : 4,
            "type" : "VEC4"
        },
        {
            "bufferView" : 8,
            "componentType" : 5126,
            "count" : 4,
            "type" : "VEC2"
        },
        {
            "bufferView" : 9,
            "componentType" : 5123,
            "count" : 6,
            "type" : "SCALAR"
        }
    ],
    "bufferViews" : [
        {
            "buffer" : 0,
            "byteLength" : 216912,
            "byteOffset" : 0
        },
        {
            "buffer" : 0,
            "byteLength" : 216912,
            "byteOffset" : 216912
        },
        {
            "buffer" : 0,
            "byteLength" : 289216,
            "byteOffset" : 433824
        },
        {
            "buffer" : 0,
            "byteLength" : 144608,
            "byteOffset" : 723040
        },
        {
            "buffer" : 0,
            "byteLength" : 81336,
            "byteOffset" : 867648
        },
        {
            "buffer" : 0,
            "byteLength" : 48,
            "byteOffset" : 948984
        },
        {
            "buffer" : 0,
            "byteLength" : 48,
            "byteOffset" : 949032
        },
        {
            "buffer" : 0,
            "byteLength" : 64,
            "byteOffset" : 949080
        },
        {
            "buffer" : 0,
            "byteLength" : 32,
            "byteOffset" : 949144
        },
        {
            "buffer" : 0,
            "byteLength" : 12,
            "byteOffset" : 949176
        }
    ],
    "buffers" : [
        {
            "byteLength" : 949188,
            "uri" : "data:application/octet-stream;base64,"
        }
    ]
}
