{
    "asset" : {
        "generator" : "Khronos glTF Blender I/O v1.4.40",
        "version" : "2.0"
    },
    "scene" : 0,
    "scenes" : [
        {
            "name" : "Scene",
            "nodes" : [
                0,
                1
            ]
        }
    ],
    "nodes" : [
        {
            "mesh" : 0,
            "name" : "btn Featured Projects",
            "rotation" : [
                0.5,
                0.5,
                -0.5,
                0.4999999701976776
            ],
            "scale" : [
                0.6000000238418579,
                0.6000000238418579,
                0.6000000238418579
            ],
            "translation" : [
                -6.850096702575684,
                2.5759942531585693,
                1.7999999523162842
            ]
        },
        {
            "mesh" : 1,
            "name" : "Plane.026",
            "rotation" : [
                -0.06162843853235245,
                -0.06162843853235245,
                -0.704416036605835,
                0.7044160962104797
            ],
            "scale" : [
                0.6000000238418579,
                1,
                1.5
            ],
            "translation" : [
                -7.038961410522461,
                2.4941725730895996,
                0.8984838724136353
            ]
        }
    ],
    "materials" : [
        {
            "doubleSided" : true,
            "emissiveFactor" : [
                0.7674891948699951,
                1,
                0.9712094664573669
            ],
            "name" : "Lighter",
            "pbrMetallicRoughness" : {}
        },
        {
            "doubleSided" : true,
            "emissiveFactor" : [
                0.141828253865242,
                0.20309944450855255,
                0.12245015054941177
            ],
            "name" : "Hunter Green ",
            "pbrMetallicRoughness" : {}
        }
    ],
    "meshes" : [
        {
            "name" : "Text.007",
            "primitives" : [
                {
                    "attributes" : {
                        "POSITION" : 0,
                        "NORMAL" : 1,
                        "TANGENT" : 2,
                        "TEXCOORD_0" : 3
                    },
                    "indices" : 4,
                    "material" : 0
                }
            ]
        },
        {
            "name" : "Plane.028",
            "primitives" : [
                {
                    "attributes" : {
                        "POSITION" : 5,
                        "NORMAL" : 6,
                        "TANGENT" : 7,
                        "TEXCOORD_0" : 8
                    },
                    "indices" : 9,
                    "material" : 1
                }
            ]
        }
    ],
    "accessors" : [
        {
            "bufferView" : 0,
            "componentType" : 5126,
            "count" : 21375,
            "max" : [
                3.107184886932373,
                0,
                0.6248971819877625
            ],
            "min" : [
                -0.0136892544105649,
                0,
                -0.5140315294265747
            ],
            "type" : "VEC3"
        },
        {
            "bufferView" : 1,
            "componentType" : 5126,
            "count" : 21375,
            "type" : "VEC3"
        },
        {
            "bufferView" : 2,
            "componentType" : 5126,
            "count" : 21375,
            "type" : "VEC4"
        },
        {
            "bufferView" : 3,
            "componentType" : 5126,
            "count" : 21375,
            "type" : "VEC2"
        },
        {
            "bufferView" : 4,
            "componentType" : 5123,
            "count" : 48036,
            "type" : "SCALAR"
        },
        {
            "bufferView" : 5,
            "componentType" : 5126,
            "count" : 4,
            "max" : [
                1,
                0,
                1
            ],
            "min" : [
                -1,
                0,
                -1
            ],
            "type" : "VEC3"
        },
        {
            "bufferView" : 6,
            "componentType" : 5126,
            "count" : 4,
            "type" : "VEC3"
        },
        {
            "bufferView" : 7,
            "componentType" : 5126,
            "count" : 4,
            "type" : "VEC4"
        },
        {
            "bufferView" : 8,
            "componentType" : 5126,
            "count" : 4,
            "type" : "VEC2"
        },
        {
            "bufferView" : 9,
            "componentType" : 5123,
            "count" : 6,
            "type" : "SCALAR"
        }
    ],
    "bufferViews" : [
        {
            "buffer" : 0,
            "byteLength" : 256500,
            "byteOffset" : 0
        },
        {
            "buffer" : 0,
            "byteLength" : 256500,
            "byteOffset" : 256500
        },
        {
            "buffer" : 0,
            "byteLength" : 342000,
            "byteOffset" : 513000
        },
        {
            "buffer" : 0,
            "byteLength" : 171000,
            "byteOffset" : 855000
        },
        {
            "buffer" : 0,
            "byteLength" : 96072,
            "byteOffset" : 1026000
        },
        {
            "buffer" : 0,
            "byteLength" : 48,
            "byteOffset" : 1122072
        },
        {
            "buffer" : 0,
            "byteLength" : 48,
            "byteOffset" : 1122120
        },
        {
            "buffer" : 0,
            "byteLength" : 64,
            "byteOffset" : 1122168
        },
        {
            "buffer" : 0,
            "byteLength" : 32,
            "byteOffset" : 1122232
        },
        {
            "buffer" : 0,
            "byteLength" : 12,
            "byteOffset" : 1122264
        }
    ],
    "buffers" : [
        {
            "byteLength" : 1122276,
            "uri" : "data:application/octet-stream;base64,"
        }
    ]
}
