{
    "asset" : {
        "generator" : "Khronos glTF Blender I/O v1.4.40",
        "version" : "2.0"
    },
    "scene" : 0,
    "scenes" : [
        {
            "name" : "Scene",
            "nodes" : [
                0,
                1
            ]
        }
    ],
    "nodes" : [
        {
            "mesh" : 0,
            "name" : "btn Personal Interest",
            "rotation" : [
                0.7071068286895752,
                0,
                0,
                0.7071068286895752
            ],
            "scale" : [
                0.6000000238418579,
                0.6000000238418579,
                0.6000000238418579
            ],
            "translation" : [
                2.3656973838806152,
                2.6625492572784424,
                -6.913908004760742
            ]
        },
        {
            "mesh" : 1,
            "name" : "Plane.027",
            "rotation" : [
                0.7065371870994568,
                -0.028377467766404152,
                -0.028377465903759003,
                0.7065371870994568
            ],
            "scale" : [
                1.2999999523162842,
                1,
                0.3500000238418579
            ],
            "translation" : [
                3.3746073246002197,
                2.756592035293579,
                -7.085016250610352
            ]
        }
    ],
    "materials" : [
        {
            "doubleSided" : true,
            "emissiveFactor" : [
                0.7674891948699951,
                1,
                0.9712094664573669
            ],
            "name" : "Lighter",
            "pbrMetallicRoughness" : {}
        },
        {
            "doubleSided" : true,
            "emissiveFactor" : [
                1,
                0.06196198612451553,
                0.13397449254989624
            ],
            "name" : "Magenta 2",
            "pbrMetallicRoughness" : {}
        }
    ],
    "meshes" : [
        {
            "name" : "Text.008",
            "primitives" : [
                {
                    "attributes" : {
                        "POSITION" : 0,
                        "NORMAL" : 1,
                        "TANGENT" : 2,
                        "TEXCOORD_0" : 3
                    },
                    "indices" : 4,
                    "material" : 0
                }
            ]
        },
        {
            "name" : "Plane.029",
            "primitives" : [
                {
                    "attributes" : {
                        "POSITION" : 5,
                        "NORMAL" : 6,
                        "TANGENT" : 7,
                        "TEXCOORD_0" : 8
                    },
                    "indices" : 9,
                    "material" : 1
                }
            ]
        }
    ],
    "accessors" : [
        {
            "bufferView" : 0,
            "componentType" : 5126,
            "count" : 12311,
            "max" : [
                3.2673492431640625,
                0,
                0.02489733137190342
            ],
            "min" : [
                -0.024640657007694244,
                0,
                -0.5099247097969055
            ],
            "type" : "VEC3"
        },
        {
            "bufferView" : 1,
            "componentType" : 5126,
            "count" : 12311,
            "type" : "VEC3"
        },
        {
            "bufferView" : 2,
            "componentType" : 5126,
            "count" : 12311,
            "type" : "VEC4"
        },
        {
            "bufferView" : 3,
            "componentType" : 5126,
            "count" : 12311,
            "type" : "VEC2"
        },
        {
            "bufferView" : 4,
            "componentType" : 5123,
            "count" : 27918,
            "type" : "SCALAR"
        },
        {
            "bufferView" : 5,
            "componentType" : 5126,
            "count" : 4,
            "max" : [
                1,
                0,
                1
            ],
            "min" : [
                -1,
                0,
                -1
            ],
            "type" : "VEC3"
        },
        {
            "bufferView" : 6,
            "componentType" : 5126,
            "count" : 4,
            "type" : "VEC3"
        },
        {
            "bufferView" : 7,
            "componentType" : 5126,
            "count" : 4,
            "type" : "VEC4"
        },
        {
            "bufferView" : 8,
            "componentType" : 5126,
            "count" : 4,
            "type" : "VEC2"
        },
        {
            "bufferView" : 9,
            "componentType" : 5123,
            "count" : 6,
            "type" : "SCALAR"
        }
    ],
    "bufferViews" : [
        {
            "buffer" : 0,
            "byteLength" : 147732,
            "byteOffset" : 0
        },
        {
            "buffer" : 0,
            "byteLength" : 147732,
            "byteOffset" : 147732
        },
        {
            "buffer" : 0,
            "byteLength" : 196976,
            "byteOffset" : 295464
        },
        {
            "buffer" : 0,
            "byteLength" : 98488,
            "byteOffset" : 492440
        },
        {
            "buffer" : 0,
            "byteLength" : 55836,
            "byteOffset" : 590928
        },
        {
            "buffer" : 0,
            "byteLength" : 48,
            "byteOffset" : 646764
        },
        {
            "buffer" : 0,
            "byteLength" : 48,
            "byteOffset" : 646812
        },
        {
            "buffer" : 0,
            "byteLength" : 64,
            "byteOffset" : 646860
        },
        {
            "buffer" : 0,
            "byteLength" : 32,
            "byteOffset" : 646924
        },
        {
            "buffer" : 0,
            "byteLength" : 12,
            "byteOffset" : 646956
        }
    ],
    "buffers" : [
        {
            "byteLength" : 646968,
            "uri" : "data:application/octet-stream;base64,"
        }
    ]
}
