{
    "asset" : {
        "generator" : "Khronos glTF Blender I/O v1.4.40",
        "version" : "2.0"
    },
    "scene" : 0,
    "scenes" : [
        {
            "name" : "Scene",
            "nodes" : [
                0,
                1
            ]
        }
    ],
    "nodes" : [
        {
            "mesh" : 0,
            "name" : "Text.004",
            "rotation" : [
                0,
                0.7071068286895752,
                -0.7071068286895752,
                -3.090862321641907e-08
            ],
            "scale" : [
                0.6000000238418579,
                0.6000000238418579,
                0.6000000238418579
            ],
            "translation" : [
                1.330413818359375,
                3.041369915008545,
                6.390774250030518
            ]
        },
        {
            "mesh" : 1,
            "name" : "Plane.023",
            "rotation" : [
                0.7069880366325378,
                0.012957682833075523,
                0.012957682833075523,
                0.7069880366325378
            ],
            "scale" : [
                1.649999976158142,
                1,
                0.3499999940395355
            ],
            "translation" : [
                0.0113067626953125,
                3.200000047683716,
                6.448323726654053
            ]
        }
    ],
    "materials" : [
        {
            "doubleSided" : true,
            "emissiveFactor" : [
                0.7674891948699951,
                1,
                0.9712094664573669
            ],
            "name" : "Lighter",
            "pbrMetallicRoughness" : {}
        },
        {
            "doubleSided" : true,
            "emissiveFactor" : [
                0.17554925382137299,
                0.043332017958164215,
                0.09055306017398834
            ],
            "name" : "Brown",
            "pbrMetallicRoughness" : {}
        }
    ],
    "meshes" : [
        {
            "name" : "Text.004",
            "primitives" : [
                {
                    "attributes" : {
                        "POSITION" : 0,
                        "NORMAL" : 1,
                        "TANGENT" : 2,
                        "TEXCOORD_0" : 3
                    },
                    "indices" : 4,
                    "material" : 0
                }
            ]
        },
        {
            "name" : "Plane.007",
            "primitives" : [
                {
                    "attributes" : {
                        "POSITION" : 5,
                        "NORMAL" : 6,
                        "TEXCOORD_0" : 7
                    },
                    "indices" : 8,
                    "material" : 1
                }
            ]
        }
    ],
    "accessors" : [
        {
            "bufferView" : 0,
            "componentType" : 5126,
            "count" : 14213,
            "max" : [
                4.446269512176514,
                0,
                0.02489733137190342
            ],
            "min" : [
                -0.024640657007694244,
                0,
                -0.5099247097969055
            ],
            "type" : "VEC3"
        },
        {
            "bufferView" : 1,
            "componentType" : 5126,
            "count" : 14213,
            "type" : "VEC3"
        },
        {
            "bufferView" : 2,
            "componentType" : 5126,
            "count" : 14213,
            "type" : "VEC4"
        },
        {
            "bufferView" : 3,
            "componentType" : 5126,
            "count" : 14213,
            "type" : "VEC2"
        },
        {
            "bufferView" : 4,
            "componentType" : 5123,
            "count" : 32085,
            "type" : "SCALAR"
        },
        {
            "bufferView" : 5,
            "componentType" : 5126,
            "count" : 13,
            "max" : [
                1,
                0,
                1
            ],
            "min" : [
                -1,
                0,
                -1
            ],
            "type" : "VEC3"
        },
        {
            "bufferView" : 6,
            "componentType" : 5126,
            "count" : 13,
            "type" : "VEC3"
        },
        {
            "bufferView" : 7,
            "componentType" : 5126,
            "count" : 13,
            "type" : "VEC2"
        },
        {
            "bufferView" : 8,
            "componentType" : 5123,
            "count" : 42,
            "type" : "SCALAR"
        }
    ],
    "bufferViews" : [
        {
            "buffer" : 0,
            "byteLength" : 170556,
            "byteOffset" : 0
        },
        {
            "buffer" : 0,
            "byteLength" : 170556,
            "byteOffset" : 170556
        },
        {
            "buffer" : 0,
            "byteLength" : 227408,
            "byteOffset" : 341112
        },
        {
            "buffer" : 0,
            "byteLength" : 113704,
            "byteOffset" : 568520
        },
        {
            "buffer" : 0,
            "byteLength" : 64170,
            "byteOffset" : 682224
        },
        {
            "buffer" : 0,
            "byteLength" : 156,
            "byteOffset" : 746396
        },
        {
            "buffer" : 0,
            "byteLength" : 156,
            "byteOffset" : 746552
        },
        {
            "buffer" : 0,
            "byteLength" : 104,
            "byteOffset" : 746708
        },
        {
            "buffer" : 0,
            "byteLength" : 84,
            "byteOffset" : 746812
        }
    ],
    "buffers" : [
        {
            "byteLength" : 746896,
            "uri" : "data:application/octet-stream;base64,"
        }
    ]
}
