{
    "asset" : {
        "generator" : "Khronos glTF Blender I/O v1.4.40",
        "version" : "2.0"
    },
    "scene" : 0,
    "scenes" : [
        {
            "name" : "Scene",
            "nodes" : [
                0
            ]
        }
    ],
    "nodes" : [
        {
            "mesh" : 0,
            "name" : "Sphere.014",
            "rotation" : [
                0,
                -0.9795753359794617,
                0,
                0.20107798278331757
            ],
            "scale" : [
                0.20000000298023224,
                0.20000000298023224,
                0.10913965851068497
            ],
            "translation" : [
                -5.768431186676025,
                6.097330093383789,
                -7.21787691116333
            ]
        }
    ],
    "materials" : [
        {
            "doubleSided" : true,
            "emissiveFactor" : [
                0.7674891948699951,
                1,
                0.9712094664573669
            ],
            "name" : "Lighter.002",
            "pbrMetallicRoughness" : {}
        },
        {
            "doubleSided" : true,
            "emissiveFactor" : [
                0.06637758761644363,
                0.08104941993951797,
                0.1443537026643753
            ],
            "name" : "Grey.002",
            "pbrMetallicRoughness" : {}
        },
        {
            "doubleSided" : true,
            "emissiveFactor" : [
                1,
                0.06196198612451553,
                0.13397449254989624
            ],
            "name" : "Magenta 2.001",
            "pbrMetallicRoughness" : {}
        }
    ],
    "meshes" : [
        {
            "name" : "Sphere.014",
            "primitives" : [
                {
                    "attributes" : {
                        "POSITION" : 0,
                        "NORMAL" : 1,
                        "TEXCOORD_0" : 2
                    },
                    "indices" : 3,
                    "material" : 0
                },
                {
                    "attributes" : {
                        "POSITION" : 4,
                        "NORMAL" : 5,
                        "TEXCOORD_0" : 6
                    },
                    "indices" : 7,
                    "material" : 1
                },
                {
                    "attributes" : {
                        "POSITION" : 8,
                        "NORMAL" : 9,
                        "TEXCOORD_0" : 10
                    },
                    "indices" : 11,
                    "material" : 2
                }
            ]
        }
    ],
    "accessors" : [
        {
            "bufferView" : 0,
            "componentType" : 5126,
            "count" : 1984,
            "max" : [
                1.000000238418579,
                1,
                1.0000003576278687
            ],
            "min" : [
                -0.9999998211860657,
                -1,
                -1
            ],
            "type" : "VEC3"
        },
        {
            "bufferView" : 1,
            "componentType" : 5126,
            "count" : 1984,
            "type" : "VEC3"
        },
        {
            "bufferView" : 2,
            "componentType" : 5126,
            "count" : 1984,
            "type" : "VEC2"
        },
        {
            "bufferView" : 3,
            "componentType" : 5123,
            "count" : 2880,
            "type" : "SCALAR"
        },
        {
            "bufferView" : 4,
            "componentType" : 5126,
            "count" : 192,
            "max" : [
                1.1999998092651367,
                1.2072267532348633,
                0.40000006556510925
            ],
            "min" : [
                -1.1999998092651367,
                -1.1927728652954102,
                -0.40000006556510925
            ],
            "type" : "VEC3"
        },
        {
            "bufferView" : 5,
            "componentType" : 5126,
            "count" : 192,
            "type" : "VEC3"
        },
        {
            "bufferView" : 6,
            "componentType" : 5126,
            "count" : 192,
            "type" : "VEC2"
        },
        {
            "bufferView" : 7,
            "componentType" : 5123,
            "count" : 372,
            "type" : "SCALAR"
        },
        {
            "bufferView" : 8,
            "componentType" : 5126,
            "count" : 3968,
            "max" : [
                0.16370950639247894,
                0.7383132576942444,
                -0.8119536638259888
            ],
            "min" : [
                -0.16370943188667297,
                -0.7708342671394348,
                -1.4119536876678467
            ],
            "type" : "VEC3"
        },
        {
            "bufferView" : 9,
            "componentType" : 5126,
            "count" : 3968,
            "type" : "VEC3"
        },
        {
            "bufferView" : 10,
            "componentType" : 5126,
            "count" : 3968,
            "type" : "VEC2"
        },
        {
            "bufferView" : 11,
            "componentType" : 5123,
            "count" : 5760,
            "type" : "SCALAR"
        }
    ],
    "bufferViews" : [
        {
            "buffer" : 0,
            "byteLength" : 23808,
            "byteOffset" : 0
        },
        {
            "buffer" : 0,
            "byteLength" : 23808,
            "byteOffset" : 23808
        },
        {
            "buffer" : 0,
            "byteLength" : 15872,
            "byteOffset" : 47616
        },
        {
            "buffer" : 0,
            "byteLength" : 5760,
            "byteOffset" : 63488
        },
        {
            "buffer" : 0,
            "byteLength" : 2304,
            "byteOffset" : 69248
        },
        {
            "buffer" : 0,
            "byteLength" : 2304,
            "byteOffset" : 71552
        },
        {
            "buffer" : 0,
            "byteLength" : 1536,
            "byteOffset" : 73856
        },
        {
            "buffer" : 0,
            "byteLength" : 744,
            "byteOffset" : 75392
        },
        {
            "buffer" : 0,
            "byteLength" : 47616,
            "byteOffset" : 76136
        },
        {
            "buffer" : 0,
            "byteLength" : 47616,
            "byteOffset" : 123752
        },
        {
            "buffer" : 0,
            "byteLength" : 31744,
            "byteOffset" : 171368
        },
        {
            "buffer" : 0,
            "byteLength" : 11520,
            "byteOffset" : 203112
        }
    ],
    "buffers" : [
        {
            "byteLength" : 214632,
            "uri" : "data:application/octet-stream;base64,"
        }
    ]
}
