{
    "asset" : {
        "generator" : "Khronos glTF Blender I/O v1.4.40",
        "version" : "2.0"
    },
    "scene" : 0,
    "scenes" : [
        {
            "name" : "Scene",
            "nodes" : [
                0,
                1
            ]
        }
    ],
    "nodes" : [
        {
            "mesh" : 0,
            "name" : "btn Personal Interest",
            "rotation" : [
                0.7071068286895752,
                0,
                0,
                0.7071068286895752
            ],
            "scale" : [
                0.6000000238418579,
                0.6000000238418579,
                0.6000000238418579
            ],
            "translation" : [
                2.41964054107666,
                2.866032838821411,
                -6.913908004760742
            ]
        },
        {
            "mesh" : 1,
            "name" : "Plane.027",
            "rotation" : [
                0.7057878971099854,
                -0.0431678369641304,
                -0.0431678369641304,
                0.7057878971099854
            ],
            "scale" : [
                1.5,
                1,
                0.550000011920929
            ],
            "translation" : [
                3.3746073246002197,
                2.7819128036499023,
                -7.085016250610352
            ]
        }
    ],
    "materials" : [
        {
            "doubleSided" : true,
            "emissiveFactor" : [
                0.7674891948699951,
                1,
                0.9712094664573669
            ],
            "name" : "Lighter",
            "pbrMetallicRoughness" : {}
        },
        {
            "doubleSided" : true,
            "emissiveFactor" : [
                1,
                0.06196198612451553,
                0.13397449254989624
            ],
            "name" : "Magenta 2",
            "pbrMetallicRoughness" : {}
        }
    ],
    "meshes" : [
        {
            "name" : "Text.008",
            "primitives" : [
                {
                    "attributes" : {
                        "POSITION" : 0,
                        "NORMAL" : 1,
                        "TANGENT" : 2,
                        "TEXCOORD_0" : 3
                    },
                    "indices" : 4,
                    "material" : 0
                }
            ]
        },
        {
            "name" : "Plane.029",
            "primitives" : [
                {
                    "attributes" : {
                        "POSITION" : 5,
                        "NORMAL" : 6,
                        "TANGENT" : 7,
                        "TEXCOORD_0" : 8
                    },
                    "indices" : 9,
                    "material" : 1
                }
            ]
        }
    ],
    "accessors" : [
        {
            "bufferView" : 0,
            "componentType" : 5126,
            "count" : 23222,
            "max" : [
                3.2673492431640625,
                0,
                0.6248971819877625
            ],
            "min" : [
                -0.024640657007694244,
                0,
                -0.5133470296859741
            ],
            "type" : "VEC3"
        },
        {
            "bufferView" : 1,
            "componentType" : 5126,
            "count" : 23222,
            "type" : "VEC3"
        },
        {
            "bufferView" : 2,
            "componentType" : 5126,
            "count" : 23222,
            "type" : "VEC4"
        },
        {
            "bufferView" : 3,
            "componentType" : 5126,
            "count" : 23222,
            "type" : "VEC2"
        },
        {
            "bufferView" : 4,
            "componentType" : 5123,
            "count" : 51891,
            "type" : "SCALAR"
        },
        {
            "bufferView" : 5,
            "componentType" : 5126,
            "count" : 4,
            "max" : [
                1,
                0,
                1
            ],
            "min" : [
                -1,
                0,
                -1
            ],
            "type" : "VEC3"
        },
        {
            "bufferView" : 6,
            "componentType" : 5126,
            "count" : 4,
            "type" : "VEC3"
        },
        {
            "bufferView" : 7,
            "componentType" : 5126,
            "count" : 4,
            "type" : "VEC4"
        },
        {
            "bufferView" : 8,
            "componentType" : 5126,
            "count" : 4,
            "type" : "VEC2"
        },
        {
            "bufferView" : 9,
            "componentType" : 5123,
            "count" : 6,
            "type" : "SCALAR"
        }
    ],
    "bufferViews" : [
        {
            "buffer" : 0,
            "byteLength" : 278664,
            "byteOffset" : 0
        },
        {
            "buffer" : 0,
            "byteLength" : 278664,
            "byteOffset" : 278664
        },
        {
            "buffer" : 0,
            "byteLength" : 371552,
            "byteOffset" : 557328
        },
        {
            "buffer" : 0,
            "byteLength" : 185776,
            "byteOffset" : 928880
        },
        {
            "buffer" : 0,
            "byteLength" : 103782,
            "byteOffset" : 1114656
        },
        {
            "buffer" : 0,
            "byteLength" : 48,
            "byteOffset" : 1218440
        },
        {
            "buffer" : 0,
            "byteLength" : 48,
            "byteOffset" : 1218488
        },
        {
            "buffer" : 0,
            "byteLength" : 64,
            "byteOffset" : 1218536
        },
        {
            "buffer" : 0,
            "byteLength" : 32,
            "byteOffset" : 1218600
        },
        {
            "buffer" : 0,
            "byteLength" : 12,
            "byteOffset" : 1218632
        }
    ],
    "buffers" : [
        {
            "byteLength" : 1218644,
            "uri" : "data:application/octet-stream;base64,"
        }
    ]
}
