{
    "asset" : {
        "generator" : "Khronos glTF Blender I/O v1.4.40",
        "version" : "2.0"
    },
    "scene" : 0,
    "scenes" : [
        {
            "name" : "Scene",
            "nodes" : [
                0,
                1
            ]
        }
    ],
    "nodes" : [
        {
            "mesh" : 0,
            "name" : "btn values",
            "rotation" : [
                0.6830127239227295,
                0.1830127090215683,
                -0.1830127090215683,
                0.6830126643180847
            ],
            "scale" : [
                0.6000000238418579,
                0.6000000238418579,
                0.6000000238418579
            ],
            "translation" : [
                -4.886338233947754,
                2.717311382293701,
                -5.740991115570068
            ]
        },
        {
            "mesh" : 1,
            "name" : "Plane.024",
            "rotation" : [
                0.6916548013687134,
                0.2185080200433731,
                -0.147015780210495,
                0.6724985241889954
            ],
            "scale" : [
                1.2000000476837158,
                1,
                0.41999998688697815
            ],
            "translation" : [
                -4.433437347412109,
                2.8224103450775146,
                -6.220699787139893
            ]
        }
    ],
    "materials" : [
        {
            "doubleSided" : true,
            "emissiveFactor" : [
                0.03061915561556816,
                0.027217349037528038,
                0.05221971869468689
            ],
            "name" : "Darkest",
            "pbrMetallicRoughness" : {}
        },
        {
            "doubleSided" : true,
            "emissiveFactor" : [
                1,
                0.43335556983947754,
                0.07823945581912994
            ],
            "name" : "Sun light",
            "pbrMetallicRoughness" : {}
        }
    ],
    "meshes" : [
        {
            "name" : "Text.003",
            "primitives" : [
                {
                    "attributes" : {
                        "POSITION" : 0,
                        "NORMAL" : 1,
                        "TANGENT" : 2,
                        "TEXCOORD_0" : 3
                    },
                    "indices" : 4,
                    "material" : 0
                }
            ]
        },
        {
            "name" : "Plane.008",
            "primitives" : [
                {
                    "attributes" : {
                        "POSITION" : 5,
                        "NORMAL" : 6,
                        "TANGENT" : 7,
                        "TEXCOORD_0" : 8
                    },
                    "indices" : 9,
                    "material" : 1
                }
            ]
        }
    ],
    "accessors" : [
        {
            "bufferView" : 0,
            "componentType" : 5126,
            "count" : 7327,
            "max" : [
                2.368649959564209,
                0,
                0.011360179632902145
            ],
            "min" : [
                0.04545973241329193,
                0,
                -0.5112936496734619
            ],
            "type" : "VEC3"
        },
        {
            "bufferView" : 1,
            "componentType" : 5126,
            "count" : 7327,
            "type" : "VEC3"
        },
        {
            "bufferView" : 2,
            "componentType" : 5126,
            "count" : 7327,
            "type" : "VEC4"
        },
        {
            "bufferView" : 3,
            "componentType" : 5126,
            "count" : 7327,
            "type" : "VEC2"
        },
        {
            "bufferView" : 4,
            "componentType" : 5123,
            "count" : 16866,
            "type" : "SCALAR"
        },
        {
            "bufferView" : 5,
            "componentType" : 5126,
            "count" : 4,
            "max" : [
                1,
                0,
                1
            ],
            "min" : [
                -1,
                0,
                -1
            ],
            "type" : "VEC3"
        },
        {
            "bufferView" : 6,
            "componentType" : 5126,
            "count" : 4,
            "type" : "VEC3"
        },
        {
            "bufferView" : 7,
            "componentType" : 5126,
            "count" : 4,
            "type" : "VEC4"
        },
        {
            "bufferView" : 8,
            "componentType" : 5126,
            "count" : 4,
            "type" : "VEC2"
        },
        {
            "bufferView" : 9,
            "componentType" : 5123,
            "count" : 6,
            "type" : "SCALAR"
        }
    ],
    "bufferViews" : [
        {
            "buffer" : 0,
            "byteLength" : 87924,
            "byteOffset" : 0
        },
        {
            "buffer" : 0,
            "byteLength" : 87924,
            "byteOffset" : 87924
        },
        {
            "buffer" : 0,
            "byteLength" : 117232,
            "byteOffset" : 175848
        },
        {
            "buffer" : 0,
            "byteLength" : 58616,
            "byteOffset" : 293080
        },
        {
            "buffer" : 0,
            "byteLength" : 33732,
            "byteOffset" : 351696
        },
        {
            "buffer" : 0,
            "byteLength" : 48,
            "byteOffset" : 385428
        },
        {
            "buffer" : 0,
            "byteLength" : 48,
            "byteOffset" : 385476
        },
        {
            "buffer" : 0,
            "byteLength" : 64,
            "byteOffset" : 385524
        },
        {
            "buffer" : 0,
            "byteLength" : 32,
            "byteOffset" : 385588
        },
        {
            "buffer" : 0,
            "byteLength" : 12,
            "byteOffset" : 385620
        }
    ],
    "buffers" : [
        {
            "byteLength" : 385632,
            "uri" : "data:application/octet-stream;base64,"
        }
    ]
}
