{
    "asset" : {
        "generator" : "Khronos glTF Blender I/O v1.4.40",
        "version" : "2.0"
    },
    "scene" : 0,
    "scenes" : [
        {
            "name" : "Scene",
            "nodes" : [
                0,
                1
            ]
        }
    ],
    "nodes" : [
        {
            "mesh" : 0,
            "name" : "btn values",
            "rotation" : [
                0.6830127239227295,
                0.1830127090215683,
                -0.1830127090215683,
                0.6830126643180847
            ],
            "scale" : [
                0.6000000238418579,
                0.6000000238418579,
                0.6000000238418579
            ],
            "translation" : [
                -4.398165702819824,
                2.836991548538208,
                -6.203666687011719
            ]
        },
        {
            "mesh" : 1,
            "name" : "Plane.024",
            "rotation" : [
                0.6861027479171753,
                0.19490507245063782,
                -0.17106463015079498,
                0.6797146797180176
            ],
            "scale" : [
                1.2000000476837158,
                1,
                0.46000000834465027
            ],
            "translation" : [
                -4.433437347412109,
                2.803421974182129,
                -6.220699787139893
            ]
        }
    ],
    "materials" : [
        {
            "doubleSided" : true,
            "emissiveFactor" : [
                0.03061915561556816,
                0.027217349037528038,
                0.05221971869468689
            ],
            "name" : "Darkest",
            "pbrMetallicRoughness" : {}
        },
        {
            "doubleSided" : true,
            "emissiveFactor" : [
                1,
                0.43335556983947754,
                0.07823945581912994
            ],
            "name" : "Sun light",
            "pbrMetallicRoughness" : {}
        }
    ],
    "meshes" : [
        {
            "name" : "Text.003",
            "primitives" : [
                {
                    "attributes" : {
                        "POSITION" : 0,
                        "NORMAL" : 1,
                        "TANGENT" : 2,
                        "TEXCOORD_0" : 3
                    },
                    "indices" : 4,
                    "material" : 0
                }
            ]
        },
        {
            "name" : "Plane.008",
            "primitives" : [
                {
                    "attributes" : {
                        "POSITION" : 5,
                        "NORMAL" : 6,
                        "TANGENT" : 7,
                        "TEXCOORD_0" : 8
                    },
                    "indices" : 9,
                    "material" : 1
                }
            ]
        }
    ],
    "accessors" : [
        {
            "bufferView" : 0,
            "componentType" : 5126,
            "count" : 18135,
            "max" : [
                1.423758864402771,
                0,
                0.6113601326942444
            ],
            "min" : [
                -1.672826886177063,
                0,
                -0.5133470296859741
            ],
            "type" : "VEC3"
        },
        {
            "bufferView" : 1,
            "componentType" : 5126,
            "count" : 18135,
            "type" : "VEC3"
        },
        {
            "bufferView" : 2,
            "componentType" : 5126,
            "count" : 18135,
            "type" : "VEC4"
        },
        {
            "bufferView" : 3,
            "componentType" : 5126,
            "count" : 18135,
            "type" : "VEC2"
        },
        {
            "bufferView" : 4,
            "componentType" : 5123,
            "count" : 40845,
            "type" : "SCALAR"
        },
        {
            "bufferView" : 5,
            "componentType" : 5126,
            "count" : 4,
            "max" : [
                1,
                0,
                1
            ],
            "min" : [
                -1,
                0,
                -1
            ],
            "type" : "VEC3"
        },
        {
            "bufferView" : 6,
            "componentType" : 5126,
            "count" : 4,
            "type" : "VEC3"
        },
        {
            "bufferView" : 7,
            "componentType" : 5126,
            "count" : 4,
            "type" : "VEC4"
        },
        {
            "bufferView" : 8,
            "componentType" : 5126,
            "count" : 4,
            "type" : "VEC2"
        },
        {
            "bufferView" : 9,
            "componentType" : 5123,
            "count" : 6,
            "type" : "SCALAR"
        }
    ],
    "bufferViews" : [
        {
            "buffer" : 0,
            "byteLength" : 217620,
            "byteOffset" : 0
        },
        {
            "buffer" : 0,
            "byteLength" : 217620,
            "byteOffset" : 217620
        },
        {
            "buffer" : 0,
            "byteLength" : 290160,
            "byteOffset" : 435240
        },
        {
            "buffer" : 0,
            "byteLength" : 145080,
            "byteOffset" : 725400
        },
        {
            "buffer" : 0,
            "byteLength" : 81690,
            "byteOffset" : 870480
        },
        {
            "buffer" : 0,
            "byteLength" : 48,
            "byteOffset" : 952172
        },
        {
            "buffer" : 0,
            "byteLength" : 48,
            "byteOffset" : 952220
        },
        {
            "buffer" : 0,
            "byteLength" : 64,
            "byteOffset" : 952268
        },
        {
            "buffer" : 0,
            "byteLength" : 32,
            "byteOffset" : 952332
        },
        {
            "buffer" : 0,
            "byteLength" : 12,
            "byteOffset" : 952364
        }
    ],
    "buffers" : [
        {
            "byteLength" : 952376,
            "uri" : "data:application/octet-stream;base64,"
        }
    ]
}
