{
    "asset" : {
        "generator" : "Khronos glTF Blender I/O v1.4.40",
        "version" : "2.0"
    },
    "scene" : 0,
    "scenes" : [
        {
            "name" : "Scene",
            "nodes" : [
                0,
                1,
                2,
                3
            ]
        }
    ],
    "nodes" : [
        {
            "mesh" : 0,
            "name" : "Cube.053",
            "rotation" : [
                0,
                0,
                0.02530457079410553,
                0.9996798038482666
            ],
            "scale" : [
                1.059999942779541,
                0.25999999046325684,
                0.009999999776482582
            ],
            "translation" : [
                4.629129886627197,
                4.80661678314209,
                7.21999979019165
            ]
        },
        {
            "mesh" : 1,
            "name" : "Journal",
            "rotation" : [
                -0.02467770129442215,
                0.7066760063171387,
                -0.7066760659217834,
                0.024677639827132225
            ],
            "scale" : [
                0.8999999761581421,
                0.6000000238418579,
                0.8999999761581421
            ],
            "translation" : [
                4.605567932128906,
                4.632235527038574,
                7.199999809265137
            ]
        },
        {
            "mesh" : 2,
            "name" : "Cube.047",
            "rotation" : [
                0,
                -0.4312402606010437,
                0,
                0.9022371172904968
            ],
            "scale" : [
                0.10000000149011612,
                0.20000000298023224,
                0.029999999329447746
            ],
            "translation" : [
                6.323380947113037,
                4.920488357543945,
                6.03547477722168
            ]
        },
        {
            "mesh" : 3,
            "name" : "Cylinder.013",
            "rotation" : [
                0.30493292212486267,
                -0.3049328923225403,
                -0.6379779577255249,
                0.6379780173301697
            ],
            "scale" : [
                0.5,
                0.10000000149011612,
                0.5
            ],
            "translation" : [
                6.323380947113037,
                5.019248962402344,
                6.03547477722168
            ]
        }
    ],
    "materials" : [
        {
            "doubleSided" : true,
            "emissiveFactor" : [
                1,
                1,
                1
            ],
            "name" : "Lightest",
            "pbrMetallicRoughness" : {}
        },
        {
            "doubleSided" : true,
            "emissiveFactor" : [
                0.14300517737865448,
                0.11023560166358948,
                0.30320245027542114
            ],
            "name" : "Light 2",
            "pbrMetallicRoughness" : {}
        },
        {
            "doubleSided" : true,
            "emissiveFactor" : [
                0.2396751195192337,
                0.20019981265068054,
                0.2681708037853241
            ],
            "name" : "Light",
            "pbrMetallicRoughness" : {}
        }
    ],
    "meshes" : [
        {
            "name" : "Cube.129",
            "primitives" : [
                {
                    "attributes" : {
                        "POSITION" : 0,
                        "NORMAL" : 1,
                        "TANGENT" : 2,
                        "TEXCOORD_0" : 3
                    },
                    "indices" : 4,
                    "material" : 0
                }
            ]
        },
        {
            "name" : "Text.009",
            "primitives" : [
                {
                    "attributes" : {
                        "POSITION" : 5,
                        "NORMAL" : 6,
                        "TANGENT" : 7,
                        "TEXCOORD_0" : 8
                    },
                    "indices" : 9,
                    "material" : 1
                }
            ]
        },
        {
            "name" : "Cube.123",
            "primitives" : [
                {
                    "attributes" : {
                        "POSITION" : 10,
                        "NORMAL" : 11,
                        "TANGENT" : 12,
                        "TEXCOORD_0" : 13
                    },
                    "indices" : 14,
                    "material" : 2
                }
            ]
        },
        {
            "name" : "Cylinder.027",
            "primitives" : [
                {
                    "attributes" : {
                        "POSITION" : 15,
                        "NORMAL" : 16,
                        "TANGENT" : 17,
                        "TEXCOORD_0" : 18
                    },
                    "indices" : 19,
                    "material" : 1
                }
            ]
        }
    ],
    "accessors" : [
        {
            "bufferView" : 0,
            "componentType" : 5126,
            "count" : 90,
            "max" : [
                1,
                1,
                1
            ],
            "min" : [
                -1,
                -1,
                -1
            ],
            "type" : "VEC3"
        },
        {
            "bufferView" : 1,
            "componentType" : 5126,
            "count" : 90,
            "type" : "VEC3"
        },
        {
            "bufferView" : 2,
            "componentType" : 5126,
            "count" : 90,
            "type" : "VEC4"
        },
        {
            "bufferView" : 3,
            "componentType" : 5126,
            "count" : 90,
            "type" : "VEC2"
        },
        {
            "bufferView" : 4,
            "componentType" : 5123,
            "count" : 180,
            "type" : "SCALAR"
        },
        {
            "bufferView" : 5,
            "componentType" : 5126,
            "count" : 15190,
            "max" : [
                1.0873445272445679,
                0,
                0.0821576789021492
            ],
            "min" : [
                -1.1342324018478394,
                0,
                -0.4319502115249634
            ],
            "type" : "VEC3"
        },
        {
            "bufferView" : 6,
            "componentType" : 5126,
            "count" : 15190,
            "type" : "VEC3"
        },
        {
            "bufferView" : 7,
            "componentType" : 5126,
            "count" : 15190,
            "type" : "VEC4"
        },
        {
            "bufferView" : 8,
            "componentType" : 5126,
            "count" : 15190,
            "type" : "VEC2"
        },
        {
            "bufferView" : 9,
            "componentType" : 5123,
            "count" : 34086,
            "type" : "SCALAR"
        },
        {
            "bufferView" : 10,
            "componentType" : 5126,
            "count" : 120,
            "max" : [
                1.0000038146972656,
                1.5528488159179688,
                8.821853637695312
            ],
            "min" : [
                -1,
                -1,
                -8.077651977539062
            ],
            "type" : "VEC3"
        },
        {
            "bufferView" : 11,
            "componentType" : 5126,
            "count" : 120,
            "type" : "VEC3"
        },
        {
            "bufferView" : 12,
            "componentType" : 5126,
            "count" : 120,
            "type" : "VEC4"
        },
        {
            "bufferView" : 13,
            "componentType" : 5126,
            "count" : 120,
            "type" : "VEC2"
        },
        {
            "bufferView" : 14,
            "componentType" : 5123,
            "count" : 180,
            "type" : "SCALAR"
        },
        {
            "bufferView" : 15,
            "componentType" : 5126,
            "count" : 456,
            "max" : [
                1,
                1,
                1
            ],
            "min" : [
                -1,
                -1,
                -1
            ],
            "type" : "VEC3"
        },
        {
            "bufferView" : 16,
            "componentType" : 5126,
            "count" : 456,
            "type" : "VEC3"
        },
        {
            "bufferView" : 17,
            "componentType" : 5126,
            "count" : 456,
            "type" : "VEC4"
        },
        {
            "bufferView" : 18,
            "componentType" : 5126,
            "count" : 456,
            "type" : "VEC2"
        },
        {
            "bufferView" : 19,
            "componentType" : 5123,
            "count" : 768,
            "type" : "SCALAR"
        }
    ],
    "bufferViews" : [
        {
            "buffer" : 0,
            "byteLength" : 1080,
            "byteOffset" : 0
        },
        {
            "buffer" : 0,
            "byteLength" : 1080,
            "byteOffset" : 1080
        },
        {
            "buffer" : 0,
            "byteLength" : 1440,
            "byteOffset" : 2160
        },
        {
            "buffer" : 0,
            "byteLength" : 720,
            "byteOffset" : 3600
        },
        {
            "buffer" : 0,
            "byteLength" : 360,
            "byteOffset" : 4320
        },
        {
            "buffer" : 0,
            "byteLength" : 182280,
            "byteOffset" : 4680
        },
        {
            "buffer" : 0,
            "byteLength" : 182280,
            "byteOffset" : 186960
        },
        {
            "buffer" : 0,
            "byteLength" : 243040,
            "byteOffset" : 369240
        },
        {
            "buffer" : 0,
            "byteLength" : 121520,
            "byteOffset" : 612280
        },
        {
            "buffer" : 0,
            "byteLength" : 68172,
            "byteOffset" : 733800
        },
        {
            "buffer" : 0,
            "byteLength" : 1440,
            "byteOffset" : 801972
        },
        {
            "buffer" : 0,
            "byteLength" : 1440,
            "byteOffset" : 803412
        },
        {
            "buffer" : 0,
            "byteLength" : 1920,
            "byteOffset" : 804852
        },
        {
            "buffer" : 0,
            "byteLength" : 960,
            "byteOffset" : 806772
        },
        {
            "buffer" : 0,
            "byteLength" : 360,
            "byteOffset" : 807732
        },
        {
            "buffer" : 0,
            "byteLength" : 5472,
            "byteOffset" : 808092
        },
        {
            "buffer" : 0,
            "byteLength" : 5472,
            "byteOffset" : 813564
        },
        {
            "buffer" : 0,
            "byteLength" : 7296,
            "byteOffset" : 819036
        },
        {
            "buffer" : 0,
            "byteLength" : 3648,
            "byteOffset" : 826332
        },
        {
            "buffer" : 0,
            "byteLength" : 1536,
            "byteOffset" : 829980
        }
    ],
    "buffers" : [
        {
            "byteLength" : 831516,
            "uri" : "data:application/octet-stream;base64,"
        }
    ]
}
