{
    "asset" : {
        "generator" : "Khronos glTF Blender I/O v1.4.40",
        "version" : "2.0"
    },
    "scene" : 0,
    "scenes" : [
        {
            "name" : "Scene",
            "nodes" : [
                0
            ]
        }
    ],
    "nodes" : [
        {
            "mesh" : 0,
            "name" : "btn instagram",
            "rotation" : [
                0.012340683490037918,
                0.7069990634918213,
                -0.7069991230964661,
                -0.012340745888650417
            ],
            "scale" : [
                0.8999999761581421,
                0.6000000238418579,
                0.8999999761581421
            ],
            "translation" : [
                4.647702217102051,
                3.1374990940093994,
                7.199999809265137
            ]
        }
    ],
    "materials" : [
        {
            "doubleSided" : true,
            "emissiveFactor" : [
                1,
                0.27416345477104187,
                0.0308335330337286
            ],
            "name" : "Color 1",
            "pbrMetallicRoughness" : {}
        }
    ],
    "meshes" : [
        {
            "name" : "Text.001",
            "primitives" : [
                {
                    "attributes" : {
                        "POSITION" : 0,
                        "NORMAL" : 1,
                        "TANGENT" : 2,
                        "TEXCOORD_0" : 3
                    },
                    "indices" : 4,
                    "material" : 0
                }
            ]
        }
    ],
    "accessors" : [
        {
            "bufferView" : 0,
            "componentType" : 5126,
            "count" : 18980,
            "max" : [
                1.374481439590454,
                0,
                0.057676348835229874
            ],
            "min" : [
                -1.3529045581817627,
                0,
                -0.3975103795528412
            ],
            "type" : "VEC3"
        },
        {
            "bufferView" : 1,
            "componentType" : 5126,
            "count" : 18980,
            "type" : "VEC3"
        },
        {
            "bufferView" : 2,
            "componentType" : 5126,
            "count" : 18980,
            "type" : "VEC4"
        },
        {
            "bufferView" : 3,
            "componentType" : 5126,
            "count" : 18980,
            "type" : "VEC2"
        },
        {
            "bufferView" : 4,
            "componentType" : 5123,
            "count" : 43101,
            "type" : "SCALAR"
        }
    ],
    "bufferViews" : [
        {
            "buffer" : 0,
            "byteLength" : 227760,
            "byteOffset" : 0
        },
        {
            "buffer" : 0,
            "byteLength" : 227760,
            "byteOffset" : 227760
        },
        {
            "buffer" : 0,
            "byteLength" : 303680,
            "byteOffset" : 455520
        },
        {
            "buffer" : 0,
            "byteLength" : 151840,
            "byteOffset" : 759200
        },
        {
            "buffer" : 0,
            "byteLength" : 86202,
            "byteOffset" : 911040
        }
    ],
    "buffers" : [
        {
            "byteLength" : 997244,
            "uri" : "data:application/octet-stream;base64,"
        }
    ]
}
