{
    "asset" : {
        "generator" : "Khronos glTF Blender I/O v1.4.40",
        "version" : "2.0"
    },
    "scene" : 0,
    "scenes" : [
        {
            "name" : "Scene",
            "nodes" : [
                0,
                1
            ]
        }
    ],
    "nodes" : [
        {
            "mesh" : 0,
            "name" : "Cube.054",
            "scale" : [
                0.9599999785423279,
                0.2199999988079071,
                0.009999999776482582
            ],
            "translation" : [
                4.7230377197265625,
                3.9798688888549805,
                7.21999979019165
            ]
        },
        {
            "mesh" : 1,
            "name" : "youtube",
            "rotation" : [
                0.019743546843528748,
                0.7068310976028442,
                -0.7068310976028442,
                -0.01974361017346382
            ],
            "scale" : [
                0.8999999761581421,
                0.6000000238418579,
                0.8999999761581421
            ],
            "translation" : [
                4.707569599151611,
                3.841362714767456,
                7.199999809265137
            ]
        }
    ],
    "materials" : [
        {
            "doubleSided" : true,
            "emissiveFactor" : [
                1,
                1,
                1
            ],
            "name" : "Lightest",
            "pbrMetallicRoughness" : {}
        },
        {
            "doubleSided" : true,
            "emissiveFactor" : [
                1,
                0.10810299217700958,
                0.11618494987487793
            ],
            "name" : "Color 4",
            "pbrMetallicRoughness" : {}
        }
    ],
    "meshes" : [
        {
            "name" : "Cube.130",
            "primitives" : [
                {
                    "attributes" : {
                        "POSITION" : 0,
                        "NORMAL" : 1,
                        "TANGENT" : 2,
                        "TEXCOORD_0" : 3
                    },
                    "indices" : 4,
                    "material" : 0
                }
            ]
        },
        {
            "name" : "Text.006",
            "primitives" : [
                {
                    "attributes" : {
                        "POSITION" : 5,
                        "NORMAL" : 6,
                        "TANGENT" : 7,
                        "TEXCOORD_0" : 8
                    },
                    "indices" : 9,
                    "material" : 1
                }
            ]
        }
    ],
    "accessors" : [
        {
            "bufferView" : 0,
            "componentType" : 5126,
            "count" : 90,
            "max" : [
                1,
                1,
                1
            ],
            "min" : [
                -1,
                -1,
                -1
            ],
            "type" : "VEC3"
        },
        {
            "bufferView" : 1,
            "componentType" : 5126,
            "count" : 90,
            "type" : "VEC3"
        },
        {
            "bufferView" : 2,
            "componentType" : 5126,
            "count" : 90,
            "type" : "VEC4"
        },
        {
            "bufferView" : 3,
            "componentType" : 5126,
            "count" : 90,
            "type" : "VEC2"
        },
        {
            "bufferView" : 4,
            "componentType" : 5123,
            "count" : 180,
            "type" : "SCALAR"
        },
        {
            "bufferView" : 5,
            "componentType" : 5126,
            "count" : 13618,
            "max" : [
                1.0290457010269165,
                0,
                0.12365145236253738
            ],
            "min" : [
                -1.0058090686798096,
                0,
                -0.4360995888710022
            ],
            "type" : "VEC3"
        },
        {
            "bufferView" : 6,
            "componentType" : 5126,
            "count" : 13618,
            "type" : "VEC3"
        },
        {
            "bufferView" : 7,
            "componentType" : 5126,
            "count" : 13618,
            "type" : "VEC4"
        },
        {
            "bufferView" : 8,
            "componentType" : 5126,
            "count" : 13618,
            "type" : "VEC2"
        },
        {
            "bufferView" : 9,
            "componentType" : 5123,
            "count" : 30726,
            "type" : "SCALAR"
        }
    ],
    "bufferViews" : [
        {
            "buffer" : 0,
            "byteLength" : 1080,
            "byteOffset" : 0
        },
        {
            "buffer" : 0,
            "byteLength" : 1080,
            "byteOffset" : 1080
        },
        {
            "buffer" : 0,
            "byteLength" : 1440,
            "byteOffset" : 2160
        },
        {
            "buffer" : 0,
            "byteLength" : 720,
            "byteOffset" : 3600
        },
        {
            "buffer" : 0,
            "byteLength" : 360,
            "byteOffset" : 4320
        },
        {
            "buffer" : 0,
            "byteLength" : 163416,
            "byteOffset" : 4680
        },
        {
            "buffer" : 0,
            "byteLength" : 163416,
            "byteOffset" : 168096
        },
        {
            "buffer" : 0,
            "byteLength" : 217888,
            "byteOffset" : 331512
        },
        {
            "buffer" : 0,
            "byteLength" : 108944,
            "byteOffset" : 549400
        },
        {
            "buffer" : 0,
            "byteLength" : 61452,
            "byteOffset" : 658344
        }
    ],
    "buffers" : [
        {
            "byteLength" : 719796,
            "uri" : "data:application/octet-stream;base64,"
        }
    ]
}
